# xmcd
#
# Track frame offsets: 
#        150
#        15753
#        29349
#        42583
#        56691
#        70835
#        85321
#        100304
#        114878
#        127696
#        140747
#        154758
#        168762
#        183275
#        196301
#        210390
#        224523
#        235877
#        246920
#        260191
#        273360
#        289133
#        302484
#
# Disc length: 4209 seconds
#
# Revision: 0
# Processed by: cddbd v1.5.2PL0 Copyright (c) Steve Scherf et al.
# Submitted via: ExactAudioCopy v1.0b3
#
DISCID=45106f17
DTITLE=Charley Jordan - Complete Recorded Works, Volume 3 
DYEAR=1992
DGENRE=Blues
TTITLE0=Christman Christmas Blues
TTITLE1=Christmas Tree Blues
TTITLE2=Get It If You Can
TTITLE3=Signifying At You
TTITLE4=No Christmas Blues
TTITLE5=Happy New Year Blues
TTITLE6=I Couldn't Stay Here
TTITLE7=Bad Feeling Blues
TTITLE8=Got Your Water On
TTITLE9=Don't Put Your Dirty Hands On Me
TTITLE10=Pork Chop Blues
TTITLE11=Tired Feelin' Blues
TTITLE12=Low Moan Blues
TTITLE13=Hard Time Papa
TTITLE14=Nineteen Women Blues
TTITLE15=Twee Twee Twa
TTITLE16=Cutting My Abc's
TTITLE17=Chifferobe
TTITLE18=Look What A Shape I'm In (Bonus Blues)
TTITLE19=Deap Sea Diver
TTITLE20=Good Scuffler Blues
TTITLE21=Low Mellow Man Blues
TTITLE22=Good Grinder Blues
EXTD=
EXTT0=
EXTT1=
EXTT2=
EXTT3=
EXTT4=
EXTT5=
EXTT6=
EXTT7=
EXTT8=
EXTT9=
EXTT10=
EXTT11=
EXTT12=
EXTT13=
EXTT14=
EXTT15=
EXTT16=
EXTT17=
EXTT18=
EXTT19=
EXTT20=
EXTT21=
EXTT22=
PLAYORDER=
